# xmcd
#
# Track frame offsets:
#	150
#	4832
#	19995
#	38360
#	55962
#	74505
#	91437
#	111397
#	133520
#	153727
#	167995
#
# Disc length: 2533 seconds
#
# Revision: 2
# Processed by: cddbd v1.5.2PL0 Copyright (c) Steve Scherf et al.
# Submitted via: audiograbber 1.83.01
#
DISCID=9509e30b
DTITLE=Kool G Rap - 4, 5, 6
DYEAR=1995
DGENRE=Hip-Hop
TTITLE0=Kool G Rap - Intro
TTITLE1=Kool G Rap - 4, 5, 6
TTITLE2=Kool G Rap - It's A Shame
TTITLE3=Kool G Rap, B-1, Grimm - Take 'Em To War
TTITLE4=Kool G Rap - Executioner Style
TTITLE5=Kool G Rap - For Da Brothaz
TTITLE6=Kool G Rap - Blowin' Up In The World
TTITLE7=Kool G Rap, Nas - Fast Life
TTITLE8=Kool G Rap - Ghetto Knows
TTITLE9=Kool G Rap - It's A Shame (Da Butcher's Mix)
TTITLE10=Kool G Rap, B-1, Grimm - Money On My Brain
EXTD=www.RapMusicGuide.com
EXTT0=
EXTT1=
EXTT2=
EXTT3=
EXTT4=
EXTT5=
EXTT6=
EXTT7=
EXTT8=
EXTT9=
EXTT10=
PLAYORDER=
